{"title":"Deadpool 2016 NEW SOURCE HDCAM XviD-RAV3N","uid":13661387,"size":1531704569,"categoryP":"video","categoryS":"movies","magnet":"?xt=urn:btih:78ba7982dfd81e73d0cbe272b15632e78c5068cc&amp;dn=Deadpool+2016+NEW+SOURCE+HDCAM+XviD-RAV3N&amp;tr=udp%3A%2F%2Ftracker.leechers-paradise.org%3A6969&amp;tr=udp%3A%2F%2Fzer0day.ch%3A1337&amp;tr=udp%3A%2F%2Fopen.demonii.com%3A1337&amp;tr=udp%3A%2F%2Ftracker.coppersurfer.tk%3A6969&amp;tr=udp%3A%2F%2Fexodus.desync.com%3A6969","seeders":0,"leechers":2,"uploader":"Supernova","files":3,"time":1456249575,"description":"http://boltimg.com/image/xayl\r\n\r\nFormat                      : AVI\r\nFormat/Info                 : Audio Video Interleave\r\nFormat profile              : OpenDML\r\nFile size                   : 1.41 GiB\r\nDuration                    : 1h 40mn\r\nOverall bit rate            : 2 003 Kbps\r\nWriting application         : Lavf56.30.100\r\n\r\nVideo\r\nID                          : 0\r\nFormat                      : MPEG-4 Visual\r\nFormat profile              : Advanced   \r\nFormat settings, BVOP       : No\r\nFormat settings, QPel       : No\r\nFormat settings, GMC        : No warppoints\r\nFormat settings, Matrix     : Default (H.263)\r\nCodec ID                    : XVID\r\nCodec ID/Hint               : XviD\r\nDuration                    : 1h 40mn\r\nBit rate                    : 1 864 Kbps\r\nWidth                       : 720 pixels\r\nHeight                      : 320 pixels\r\nDisplay aspect ratio        : 16:9\r\nFrame rate                  : 23.976 fps\r\nColor space                 : YUV\r\nChroma subsampling          : 4:2:0\r\nBit depth                   : 8 bits\r\nScan type                   : Progressive\r\nCompression mode            : Lossy\r\nBits/(Pixel*Frame)          : 0.337\r\nStream size                 : 1.31 GiB (93%)\r\nTitle                       : mpeg4 720x320 16/9\r\nWriting library             : Lavc56.35.101\r\n\r\nAudio\r\nID                          : 1\r\nFormat                      : AC-3\r\nFormat/Info                 : Audio Coding 3\r\nMode extension              : CM (complete main)\r\nFormat settings, Endianness : Big\r\nCodec ID                    : 2000\r\nDuration                    : 1h 40mn\r\nBit rate mode               : Constant\r\nBit rate                    : 128 Kbps\r\nChannel(s)                  : 2 channels\r\nChannel positions           : Front: L R\r\nSampling rate               : 44.1 KHz\r\nBit depth                   : 16 bits\r\nCompression mode            : Lossy\r\nStream size                 : 92.2 MiB (6%)\r\nAlignment                   : Aligned on interleaves\r\nInterleave, duration        : 35 ms (0.83 video frame)\r\nTitle                       : ac3 44100Hz 2Ch.\r\n\r\nSCREENS\r\n \nhttp://boltimg.com/image/xbzP \nhttp://boltimg.com/image/xuZe \nhttp://boltimg.com/image/xBgc \nhttp://boltimg.com/image/xCpu \nhttp://boltimg.com/image/xKG3 \nhttp://boltimg.com/image/xgon \nhttp://boltimg.com/image/xwnA","torrent":{"xt":"urn:btih:78ba7982dfd81e73d0cbe272b15632e78c5068cc","amp;dn":"Deadpool+2016+NEW+SOURCE+HDCAM+XviD-RAV3N","amp;tr":["udp%3A%2F%2Ftracker.leechers-paradise.org%3A6969","udp%3A%2F%2Fzer0day.ch%3A1337","udp%3A%2F%2Fopen.demonii.com%3A1337","udp%3A%2F%2Ftracker.coppersurfer.tk%3A6969","udp%3A%2F%2Fexodus.desync.com%3A6969"],"infoHash":"78ba7982dfd81e73d0cbe272b15632e78c5068cc","infoHashBuffer":{"type":"Buffer","data":[120,186,121,130,223,216,30,115,208,203,226,114,177,86,50,231,140,80,104,204]},"announce":[],"urlList":[]}}